<svg width="166" height="28" viewBox="0 0 166 28" fill="none" xmlns="http://www.w3.org/2000/svg">
<path d="M6.09608 0.535645V3.17971H3.26517V23.8452H6.09608V26.5356H0.125V0.535645H6.09608Z" fill="#FD7032" style="fill:#FD7032;fill:color(display-p3 0.9922 0.4392 0.1961);fill-opacity:1;"/>
<path d="M20.0279 14.7952C19.2242 14.8568 18.613 15.0571 18.1945 15.3961C17.7926 15.7351 17.5917 16.1896 17.5917 16.7596C17.5917 17.3913 17.667 18.3158 17.8177 19.533C17.9852 20.9813 18.0689 22.0444 18.0689 22.7223C18.0689 23.9241 17.6754 24.8562 16.8885 25.5188C16.1183 26.1967 15.0886 26.5356 13.7993 26.5356H12.0664V23.7854H13.1212C13.657 23.7854 14.0505 23.6776 14.3016 23.4619C14.5528 23.2462 14.6784 22.8995 14.6784 22.4219C14.6784 22.0059 14.6114 21.1508 14.4774 19.8565C14.4607 19.6716 14.4188 19.2248 14.3519 18.5161C14.2849 17.7919 14.2514 17.1679 14.2514 16.6441C14.2514 15.8121 14.4691 15.1342 14.9044 14.6103C15.3397 14.0711 16.0011 13.7167 16.8885 13.5472V13.501C16.0011 13.3469 15.3397 13.0002 14.9044 12.461C14.4691 11.9217 14.2514 11.2438 14.2514 10.4272C14.2514 9.87253 14.2849 9.24083 14.3519 8.53209C14.4188 7.80794 14.4607 7.36883 14.4774 7.21476C14.6114 5.92053 14.6784 5.05772 14.6784 4.62631C14.6784 3.71727 14.1593 3.26276 13.1212 3.26276H12.0664V0.535645H13.7993C15.0886 0.535645 16.1183 0.874608 16.8885 1.55253C17.6754 2.21505 18.0689 3.1472 18.0689 4.34898C18.0689 5.0115 17.9852 6.0669 17.8177 7.5152C17.667 8.73239 17.5917 9.66453 17.5917 10.3116C17.5917 10.8817 17.7926 11.3362 18.1945 11.6752C18.613 12.0142 19.2242 12.2145 20.0279 12.2761V14.7952Z" fill="#FD7032" style="fill:#FD7032;fill:color(display-p3 0.9922 0.4392 0.1961);fill-opacity:1;"/>
<path d="M13.1057 8.53564C13.1057 9.64021 12.2146 10.5356 11.1154 10.5356C10.0161 10.5356 9.125 9.64021 9.125 8.53564C9.125 7.43107 10.0161 6.53564 11.1154 6.53564C12.2146 6.53564 13.1057 7.43107 13.1057 8.53564Z" fill="#FD7032" style="fill:#FD7032;fill:color(display-p3 0.9922 0.4392 0.1961);fill-opacity:1;"/>
<path d="M165.325 21.9353L163.105 27.3833H162.473L163.199 25.5988L161.713 21.9353H162.392L163.549 24.9364L164.693 21.9353H165.325Z" fill="white" style="fill:white;fill-opacity:1;"/>
<path d="M159.124 21.8745C159.442 21.8745 159.72 21.9444 159.958 22.084C160.2 22.2237 160.38 22.3995 160.496 22.6113V21.9353H161.115V25.7205C161.115 26.0585 161.043 26.3582 160.9 26.6195C160.756 26.8854 160.55 27.0927 160.281 27.2414C160.016 27.3901 159.707 27.4644 159.353 27.4644C158.868 27.4644 158.465 27.3495 158.142 27.1197C157.819 26.8899 157.628 26.5767 157.57 26.1802H158.175C158.243 26.4055 158.382 26.5857 158.593 26.7209C158.803 26.8606 159.057 26.9304 159.353 26.9304C159.689 26.9304 159.963 26.8245 160.173 26.6127C160.389 26.401 160.496 26.1036 160.496 25.7205V24.9432C160.375 25.1595 160.196 25.3398 159.958 25.484C159.72 25.6282 159.442 25.7002 159.124 25.7002C158.797 25.7002 158.498 25.6191 158.229 25.4569C157.965 25.2947 157.756 25.0671 157.604 24.7742C157.451 24.4813 157.375 24.1479 157.375 23.7739C157.375 23.3953 157.451 23.0641 157.604 22.7803C157.756 22.4919 157.965 22.2688 158.229 22.1111C158.498 21.9534 158.797 21.8745 159.124 21.8745ZM160.496 23.7806C160.496 23.5012 160.44 23.2579 160.328 23.0506C160.216 22.8433 160.063 22.6856 159.871 22.5775C159.682 22.4648 159.474 22.4085 159.245 22.4085C159.016 22.4085 158.808 22.4626 158.619 22.5707C158.431 22.6789 158.281 22.8366 158.169 23.0439C158.057 23.2511 158.001 23.4945 158.001 23.7739C158.001 24.0578 158.057 24.3056 158.169 24.5174C158.281 24.7247 158.431 24.8846 158.619 24.9973C158.808 25.1054 159.016 25.1595 159.245 25.1595C159.474 25.1595 159.682 25.1054 159.871 24.9973C160.063 24.8846 160.216 24.7247 160.328 24.5174C160.44 24.3056 160.496 24.06 160.496 23.7806Z" fill="white" style="fill:white;fill-opacity:1;"/>
<path d="M154.909 25.7002C154.563 25.7002 154.249 25.6214 153.967 25.4637C153.689 25.306 153.469 25.0829 153.308 24.7945C153.151 24.5016 153.072 24.1636 153.072 23.7806C153.072 23.4021 153.153 23.0686 153.314 22.7803C153.48 22.4874 153.705 22.2643 153.987 22.1111C154.27 21.9534 154.586 21.8745 154.936 21.8745C155.285 21.8745 155.601 21.9534 155.884 22.1111C156.167 22.2643 156.389 22.4851 156.55 22.7735C156.716 23.0619 156.799 23.3976 156.799 23.7806C156.799 24.1636 156.714 24.5016 156.543 24.7945C156.377 25.0829 156.151 25.306 155.864 25.4637C155.577 25.6214 155.258 25.7002 154.909 25.7002ZM154.909 25.1595C155.128 25.1595 155.335 25.1077 155.528 25.004C155.72 24.9004 155.875 24.7449 155.992 24.5377C156.113 24.3304 156.173 24.078 156.173 23.7806C156.173 23.4832 156.115 23.2309 155.998 23.0236C155.882 22.8163 155.729 22.6631 155.541 22.564C155.353 22.4603 155.149 22.4085 154.929 22.4085C154.705 22.4085 154.498 22.4603 154.31 22.564C154.126 22.6631 153.978 22.8163 153.866 23.0236C153.754 23.2309 153.698 23.4832 153.698 23.7806C153.698 24.0825 153.752 24.3371 153.859 24.5444C153.971 24.7517 154.119 24.9072 154.303 25.0108C154.487 25.1099 154.689 25.1595 154.909 25.1595Z" fill="white" style="fill:white;fill-opacity:1;"/>
<path d="M152.259 20.6375V25.6393H151.646V20.6375H152.259Z" fill="white" style="fill:white;fill-opacity:1;"/>
<path d="M148.952 25.7002C148.606 25.7002 148.292 25.6214 148.01 25.4637C147.732 25.306 147.512 25.0829 147.351 24.7945C147.194 24.5016 147.115 24.1636 147.115 23.7806C147.115 23.4021 147.196 23.0686 147.357 22.7803C147.523 22.4874 147.748 22.2643 148.03 22.1111C148.313 21.9534 148.629 21.8745 148.979 21.8745C149.328 21.8745 149.644 21.9534 149.927 22.1111C150.21 22.2643 150.431 22.4851 150.593 22.7735C150.759 23.0619 150.842 23.3976 150.842 23.7806C150.842 24.1636 150.757 24.5016 150.586 24.7945C150.42 25.0829 150.194 25.306 149.907 25.4637C149.62 25.6214 149.301 25.7002 148.952 25.7002ZM148.952 25.1595C149.171 25.1595 149.378 25.1077 149.57 25.004C149.763 24.9004 149.918 24.7449 150.035 24.5377C150.156 24.3304 150.216 24.078 150.216 23.7806C150.216 23.4832 150.158 23.2309 150.041 23.0236C149.925 22.8163 149.772 22.6631 149.584 22.564C149.396 22.4603 149.192 22.4085 148.972 22.4085C148.748 22.4085 148.541 22.4603 148.353 22.564C148.169 22.6631 148.021 22.8163 147.909 23.0236C147.797 23.2309 147.741 23.4832 147.741 23.7806C147.741 24.0825 147.795 24.3371 147.902 24.5444C148.014 24.7517 148.162 24.9072 148.346 25.0108C148.53 25.1099 148.732 25.1595 148.952 25.1595Z" fill="white" style="fill:white;fill-opacity:1;"/>
<path d="M144.837 21.8677C145.285 21.8677 145.649 22.0051 145.927 22.28C146.205 22.5504 146.344 22.9424 146.344 23.4561V25.6393H145.738V23.544C145.738 23.1745 145.646 22.8928 145.463 22.6991C145.279 22.5008 145.028 22.4017 144.709 22.4017C144.386 22.4017 144.128 22.503 143.936 22.7058C143.747 22.9086 143.653 23.2038 143.653 23.5913V25.6393H143.041V21.9353H143.653V22.4625C143.774 22.2732 143.938 22.1268 144.144 22.0231C144.355 21.9195 144.586 21.8677 144.837 21.8677Z" fill="white" style="fill:white;fill-opacity:1;"/>
<path d="M140.568 21.8676C140.846 21.8676 141.097 21.9285 141.321 22.0501C141.546 22.1673 141.72 22.3453 141.846 22.5841C141.976 22.8229 142.041 23.1136 142.041 23.4561V25.6393H141.436V23.5439C141.436 23.1744 141.344 22.8928 141.16 22.699C140.976 22.5008 140.725 22.4016 140.406 22.4016C140.084 22.4016 139.826 22.503 139.633 22.7058C139.445 22.9086 139.35 23.2037 139.35 23.5912V25.6393H138.738V20.6375H139.35V22.4624C139.471 22.2732 139.637 22.1267 139.848 22.0231C140.063 21.9195 140.303 21.8676 140.568 21.8676Z" fill="white" style="fill:white;fill-opacity:1;"/>
<path d="M134.424 23.7806C134.424 23.3976 134.5 23.0641 134.653 22.7803C134.805 22.4919 135.016 22.2688 135.285 22.1111C135.558 21.9534 135.87 21.8745 136.22 21.8745C136.673 21.8745 137.045 21.9849 137.336 22.2057C137.632 22.4265 137.828 22.7329 137.922 23.125H137.262C137.2 22.8997 137.076 22.7217 136.893 22.591C136.713 22.4603 136.489 22.395 136.22 22.395C135.87 22.395 135.588 22.5166 135.372 22.76C135.157 22.9988 135.049 23.339 135.049 23.7806C135.049 24.2267 135.157 24.5715 135.372 24.8148C135.588 25.0581 135.87 25.1798 136.22 25.1798C136.489 25.1798 136.713 25.1167 136.893 24.9905C137.072 24.8644 137.195 24.6841 137.262 24.4498H137.922C137.823 24.8283 137.626 25.1325 137.33 25.3623C137.034 25.5876 136.664 25.7002 136.22 25.7002C135.87 25.7002 135.558 25.6214 135.285 25.4637C135.016 25.306 134.805 25.0829 134.653 24.7945C134.5 24.5061 134.424 24.1682 134.424 23.7806Z" fill="white" style="fill:white;fill-opacity:1;"/>
<path d="M133.844 23.6454C133.844 23.7626 133.837 23.8865 133.824 24.0172H130.878C130.9 24.3822 131.023 24.6683 131.248 24.8756C131.476 25.0784 131.752 25.1798 132.075 25.1798C132.339 25.1798 132.559 25.119 132.734 24.9973C132.913 24.8711 133.039 24.7044 133.111 24.4971H133.77C133.671 24.8531 133.474 25.1437 133.178 25.369C132.882 25.5898 132.514 25.7002 132.075 25.7002C131.725 25.7002 131.411 25.6214 131.133 25.4637C130.86 25.306 130.644 25.0829 130.487 24.7945C130.33 24.5016 130.252 24.1636 130.252 23.7806C130.252 23.3976 130.328 23.0619 130.481 22.7735C130.633 22.4851 130.846 22.2643 131.12 22.1111C131.398 21.9534 131.716 21.8745 132.075 21.8745C132.425 21.8745 132.734 21.9511 133.003 22.1043C133.272 22.2575 133.479 22.4693 133.622 22.7397C133.77 23.0056 133.844 23.3075 133.844 23.6454ZM133.212 23.517C133.212 23.2827 133.16 23.0822 133.057 22.9154C132.954 22.7442 132.813 22.6158 132.633 22.5302C132.458 22.44 132.263 22.395 132.048 22.395C131.739 22.395 131.474 22.4941 131.254 22.6924C131.039 22.8907 130.916 23.1655 130.884 23.517H133.212Z" fill="white" style="fill:white;fill-opacity:1;"/>
<path d="M128.777 22.4422V24.6254C128.777 24.8056 128.815 24.9341 128.892 25.0107C128.968 25.0828 129.1 25.1188 129.288 25.1188H129.739V25.6393H129.188C128.847 25.6393 128.591 25.5604 128.421 25.4027C128.25 25.245 128.165 24.9859 128.165 24.6254V22.4422H127.688V21.9352H128.165V21.0024H128.777V21.9352H129.739V22.4422H128.777Z" fill="white" style="fill:white;fill-opacity:1;"/>
<path d="M123.732 21.8677C124.18 21.8677 124.543 22.0051 124.821 22.28C125.099 22.5504 125.238 22.9424 125.238 23.4561V25.6393H124.633V23.544C124.633 23.1745 124.541 22.8928 124.357 22.6991C124.173 22.5008 123.922 22.4017 123.604 22.4017C123.281 22.4017 123.023 22.503 122.83 22.7058C122.642 22.9086 122.548 23.2038 122.548 23.5913V25.6393H121.936V21.9353H122.548V22.4625C122.669 22.2732 122.832 22.1268 123.039 22.0231C123.249 21.9195 123.48 21.8677 123.732 21.8677Z" fill="white" style="fill:white;fill-opacity:1;"/>
<path d="M120.595 21.3338C120.478 21.3338 120.38 21.2932 120.299 21.2121C120.218 21.131 120.178 21.0318 120.178 20.9147C120.178 20.7975 120.218 20.6984 120.299 20.6173C120.38 20.5362 120.478 20.4956 120.595 20.4956C120.707 20.4956 120.801 20.5362 120.877 20.6173C120.958 20.6984 120.998 20.7975 120.998 20.9147C120.998 21.0318 120.958 21.131 120.877 21.2121C120.801 21.2932 120.707 21.3338 120.595 21.3338ZM120.891 21.9353V25.6394H120.279V21.9353H120.891Z" fill="white" style="fill:white;fill-opacity:1;"/>
<path d="M115.98 21.8677C116.428 21.8677 116.791 22.0051 117.069 22.28C117.347 22.5504 117.486 22.9424 117.486 23.4561V25.6393H116.881V23.544C116.881 23.1745 116.789 22.8928 116.605 22.6991C116.421 22.5008 116.17 22.4017 115.852 22.4017C115.529 22.4017 115.271 22.503 115.078 22.7058C114.89 22.9086 114.796 23.2038 114.796 23.5913V25.6393H114.184V21.9353H114.796V22.4625C114.917 22.2732 115.08 22.1268 115.287 22.0231C115.498 21.9195 115.728 21.8677 115.98 21.8677Z" fill="white" style="fill:white;fill-opacity:1;"/>
<path d="M111.489 25.7002C111.143 25.7002 110.83 25.6214 110.547 25.4637C110.269 25.306 110.049 25.0829 109.888 24.7945C109.731 24.5016 109.652 24.1636 109.652 23.7806C109.652 23.4021 109.733 23.0686 109.895 22.7803C110.06 22.4874 110.285 22.2643 110.567 22.1111C110.85 21.9534 111.166 21.8745 111.516 21.8745C111.865 21.8745 112.182 21.9534 112.464 22.1111C112.747 22.2643 112.969 22.4851 113.13 22.7735C113.296 23.0619 113.379 23.3976 113.379 23.7806C113.379 24.1636 113.294 24.5016 113.123 24.7945C112.957 25.0829 112.731 25.306 112.444 25.4637C112.157 25.6214 111.839 25.7002 111.489 25.7002ZM111.489 25.1595C111.708 25.1595 111.915 25.1077 112.108 25.004C112.3 24.9004 112.455 24.7449 112.572 24.5377C112.693 24.3304 112.753 24.078 112.753 23.7806C112.753 23.4832 112.695 23.2309 112.578 23.0236C112.462 22.8163 112.309 22.6631 112.121 22.564C111.933 22.4603 111.729 22.4085 111.509 22.4085C111.285 22.4085 111.078 22.4603 110.89 22.564C110.706 22.6631 110.558 22.8163 110.446 23.0236C110.334 23.2309 110.278 23.4832 110.278 23.7806C110.278 24.0825 110.332 24.3371 110.439 24.5444C110.551 24.7517 110.699 24.9072 110.883 25.0108C111.067 25.1099 111.269 25.1595 111.489 25.1595Z" fill="white" style="fill:white;fill-opacity:1;"/>
<path d="M108.542 21.3338C108.425 21.3338 108.327 21.2932 108.246 21.2121C108.165 21.131 108.125 21.0318 108.125 20.9147C108.125 20.7975 108.165 20.6984 108.246 20.6173C108.327 20.5362 108.425 20.4956 108.542 20.4956C108.654 20.4956 108.748 20.5362 108.825 20.6173C108.905 20.6984 108.946 20.7975 108.946 20.9147C108.946 21.0318 108.905 21.131 108.825 21.2121C108.748 21.2932 108.654 21.3338 108.542 21.3338ZM108.838 21.9353V25.6394H108.226V21.9353H108.838Z" fill="white" style="fill:white;fill-opacity:1;"/>
<path d="M106.521 22.4422V24.6254C106.521 24.8056 106.559 24.9341 106.636 25.0107C106.712 25.0828 106.844 25.1188 107.033 25.1188H107.483V25.6393H106.932C106.591 25.6393 106.335 25.5604 106.165 25.4027C105.994 25.245 105.909 24.9859 105.909 24.6254V22.4422H105.432V21.9352H105.909V21.0024H106.521V21.9352H107.483V22.4422H106.521Z" fill="white" style="fill:white;fill-opacity:1;"/>
<path d="M101 23.7739C101 23.3953 101.076 23.0641 101.229 22.7803C101.381 22.4919 101.59 22.2688 101.854 22.1111C102.123 21.9534 102.422 21.8745 102.749 21.8745C103.072 21.8745 103.352 21.9444 103.59 22.084C103.827 22.2237 104.005 22.3995 104.121 22.6113V21.9353H104.74V25.6394H104.121V24.95C104 25.1663 103.818 25.3465 103.576 25.4907C103.339 25.6304 103.061 25.7002 102.742 25.7002C102.415 25.7002 102.119 25.6191 101.854 25.4569C101.59 25.2947 101.381 25.0671 101.229 24.7742C101.076 24.4813 101 24.1479 101 23.7739ZM104.121 23.7806C104.121 23.5012 104.065 23.2579 103.953 23.0506C103.841 22.8433 103.688 22.6856 103.496 22.5775C103.307 22.4648 103.099 22.4085 102.87 22.4085C102.641 22.4085 102.433 22.4626 102.244 22.5707C102.056 22.6789 101.906 22.8366 101.794 23.0439C101.682 23.2511 101.626 23.4945 101.626 23.7739C101.626 24.0578 101.682 24.3056 101.794 24.5174C101.906 24.7247 102.056 24.8846 102.244 24.9973C102.433 25.1054 102.641 25.1595 102.87 25.1595C103.099 25.1595 103.307 25.1054 103.496 24.9973C103.688 24.8846 103.841 24.7247 103.953 24.5174C104.065 24.3056 104.121 24.06 104.121 23.7806Z" fill="white" style="fill:white;fill-opacity:1;"/>
<path d="M99.3309 22.5368C99.4385 22.3251 99.591 22.1606 99.7883 22.0434C99.9901 21.9263 100.234 21.8677 100.521 21.8677V22.503H100.36C99.6739 22.503 99.3309 22.8771 99.3309 23.6251V25.6393H98.7188V21.9353H99.3309V22.5368Z" fill="white" style="fill:white;fill-opacity:1;"/>
<path d="M96.0239 25.7002C95.6786 25.7002 95.3647 25.6214 95.0821 25.4637C94.8041 25.306 94.5844 25.0829 94.4229 24.7945C94.266 24.5016 94.1875 24.1636 94.1875 23.7806C94.1875 23.4021 94.2682 23.0686 94.4297 22.7803C94.5956 22.4874 94.8198 22.2643 95.1023 22.1111C95.3848 21.9534 95.701 21.8745 96.0508 21.8745C96.4006 21.8745 96.7167 21.9534 96.9993 22.1111C97.2818 22.2643 97.5038 22.4851 97.6652 22.7735C97.8311 23.0619 97.9141 23.3976 97.9141 23.7806C97.9141 24.1636 97.8289 24.5016 97.6585 24.7945C97.4925 25.0829 97.2661 25.306 96.9791 25.4637C96.6921 25.6214 96.3737 25.7002 96.0239 25.7002ZM96.0239 25.1595C96.2436 25.1595 96.4499 25.1077 96.6427 25.004C96.8356 24.9004 96.9903 24.7449 97.1069 24.5377C97.228 24.3304 97.2885 24.078 97.2885 23.7806C97.2885 23.4832 97.2302 23.2309 97.1136 23.0236C96.997 22.8163 96.8445 22.6631 96.6562 22.564C96.4678 22.4603 96.2638 22.4085 96.0441 22.4085C95.8198 22.4085 95.6136 22.4603 95.4252 22.564C95.2413 22.6631 95.0934 22.8163 94.9812 23.0236C94.8691 23.2309 94.8131 23.4832 94.8131 23.7806C94.8131 24.0825 94.8669 24.3371 94.9745 24.5444C95.0866 24.7517 95.2346 24.9072 95.4185 25.0108C95.6023 25.1099 95.8041 25.1595 96.0239 25.1595Z" fill="white" style="fill:white;fill-opacity:1;"/>
<path d="M90.4832 22.618C90.6043 22.4062 90.7837 22.2305 91.0214 22.0908C91.2635 21.9466 91.5438 21.8745 91.8622 21.8745C92.1896 21.8745 92.4855 21.9534 92.7501 22.1111C93.0192 22.2688 93.2299 22.4919 93.3824 22.7803C93.5349 23.0641 93.6111 23.3953 93.6111 23.7739C93.6111 24.1479 93.5349 24.4813 93.3824 24.7742C93.2299 25.0671 93.0192 25.2947 92.7501 25.4569C92.4855 25.6191 92.1896 25.7002 91.8622 25.7002C91.5483 25.7002 91.2702 25.6304 91.0281 25.4907C90.7904 25.3465 90.6088 25.1685 90.4832 24.9567V27.3968H89.8711V21.9353H90.4832V22.618ZM92.9855 23.7739C92.9855 23.4945 92.9295 23.2511 92.8174 23.0439C92.7053 22.8366 92.5528 22.6789 92.36 22.5707C92.1716 22.4626 91.9631 22.4085 91.7344 22.4085C91.5102 22.4085 91.3016 22.4648 91.1088 22.5775C90.9205 22.6856 90.768 22.8456 90.6514 23.0574C90.5393 23.2647 90.4832 23.5057 90.4832 23.7806C90.4832 24.06 90.5393 24.3056 90.6514 24.5174C90.768 24.7247 90.9205 24.8846 91.1088 24.9973C91.3016 25.1054 91.5102 25.1595 91.7344 25.1595C91.9631 25.1595 92.1716 25.1054 92.36 24.9973C92.5528 24.8846 92.7053 24.7247 92.8174 24.5174C92.9295 24.3056 92.9855 24.0578 92.9855 23.7739Z" fill="white" style="fill:white;fill-opacity:1;"/>
<path d="M87.9735 22.5368C88.0811 22.3251 88.2336 22.1606 88.4309 22.0434C88.6327 21.9263 88.8771 21.8677 89.1641 21.8677V22.503H89.0026C88.3165 22.503 87.9735 22.8771 87.9735 23.6251V25.6393H87.3613V21.9353H87.9735V22.5368Z" fill="white" style="fill:white;fill-opacity:1;"/>
<path d="M84.6665 25.7002C84.3212 25.7002 84.0072 25.6214 83.7247 25.4637C83.4467 25.306 83.227 25.0829 83.0655 24.7945C82.9086 24.5016 82.8301 24.1636 82.8301 23.7806C82.8301 23.4021 82.9108 23.0686 83.0722 22.7803C83.2382 22.4874 83.4624 22.2643 83.7449 22.1111C84.0274 21.9534 84.3436 21.8745 84.6934 21.8745C85.0432 21.8745 85.3593 21.9534 85.6418 22.1111C85.9244 22.2643 86.1463 22.4851 86.3078 22.7735C86.4737 23.0619 86.5567 23.3976 86.5567 23.7806C86.5567 24.1636 86.4715 24.5016 86.301 24.7945C86.1351 25.0829 85.9087 25.306 85.6217 25.4637C85.3346 25.6214 85.0162 25.7002 84.6665 25.7002ZM84.6665 25.1595C84.8862 25.1595 85.0925 25.1077 85.2853 25.004C85.4781 24.9004 85.6329 24.7449 85.7495 24.5377C85.8705 24.3304 85.9311 24.078 85.9311 23.7806C85.9311 23.4832 85.8728 23.2309 85.7562 23.0236C85.6396 22.8163 85.4871 22.6631 85.2988 22.564C85.1104 22.4603 84.9064 22.4085 84.6866 22.4085C84.4624 22.4085 84.2561 22.4603 84.0678 22.564C83.8839 22.6631 83.7359 22.8163 83.6238 23.0236C83.5117 23.2309 83.4557 23.4832 83.4557 23.7806C83.4557 24.0825 83.5095 24.3371 83.6171 24.5444C83.7292 24.7517 83.8772 24.9072 84.0611 25.0108C84.2449 25.1099 84.4467 25.1595 84.6665 25.1595Z" fill="white" style="fill:white;fill-opacity:1;"/>
<path d="M78.7441 23.7806C78.7441 23.3976 78.8204 23.0641 78.9728 22.7803C79.1253 22.4919 79.3361 22.2688 79.6052 22.1111C79.8787 21.9534 80.1904 21.8745 80.5402 21.8745C80.9931 21.8745 81.3653 21.9849 81.6568 22.2057C81.9528 22.4265 82.1478 22.7329 82.242 23.125H81.5828C81.52 22.8997 81.3967 22.7217 81.2128 22.591C81.0335 22.4603 80.8092 22.395 80.5402 22.395C80.1904 22.395 79.9079 22.5166 79.6926 22.76C79.4773 22.9988 79.3697 23.339 79.3697 23.7806C79.3697 24.2267 79.4773 24.5715 79.6926 24.8148C79.9079 25.0581 80.1904 25.1798 80.5402 25.1798C80.8092 25.1798 81.0335 25.1167 81.2128 24.9905C81.3922 24.8644 81.5155 24.6841 81.5828 24.4498H82.242C82.1434 24.8283 81.946 25.1325 81.6501 25.3623C81.3541 25.5876 80.9841 25.7002 80.5402 25.7002C80.1904 25.7002 79.8787 25.6214 79.6052 25.4637C79.3361 25.306 79.1253 25.0829 78.9728 24.7945C78.8204 24.5061 78.7441 24.1682 78.7441 23.7806Z" fill="white" style="fill:white;fill-opacity:1;"/>
<path d="M160.859 6.77499C162.411 6.77499 163.656 7.29483 164.593 8.3345C165.531 9.35793 166 10.7712 166 12.5744V20.5182H161.877V13.1349C161.877 12.2252 161.643 11.5185 161.174 11.0149C160.705 10.5113 160.075 10.2595 159.283 10.2595C158.49 10.2595 157.86 10.5113 157.391 11.0149C156.922 11.5185 156.688 12.2252 156.688 13.1349V20.5182H152.541V2.48633H156.688V8.74875C157.108 8.14768 157.682 7.66846 158.41 7.31107C159.137 6.95368 159.953 6.77499 160.859 6.77499Z" fill="white" style="fill:white;fill-opacity:1;"/>
<path d="M137.033 13.7198C137.033 12.3065 137.316 11.0718 137.882 10.0159C138.464 8.96 139.264 8.14775 140.283 7.57918C141.317 7.0106 142.498 6.72632 143.823 6.72632C145.521 6.72632 146.935 7.17305 148.067 8.06653C149.215 8.96 149.967 10.219 150.322 11.8435H145.909C145.537 10.8038 144.817 10.284 143.75 10.284C142.991 10.284 142.384 10.5845 141.932 11.1856C141.479 11.7704 141.253 12.6151 141.253 13.7198C141.253 14.8244 141.479 15.6773 141.932 16.2783C142.384 16.8632 142.991 17.1556 143.75 17.1556C144.817 17.1556 145.537 16.6357 145.909 15.5961H150.322C149.967 17.1881 149.215 18.4389 148.067 19.3486C146.919 20.2583 145.505 20.7132 143.823 20.7132C142.498 20.7132 141.317 20.4289 140.283 19.8603C139.264 19.2918 138.464 18.4795 137.882 17.4236C137.316 16.3677 137.033 15.1331 137.033 13.7198Z" fill="white" style="fill:white;fill-opacity:1;"/>
<path d="M135.67 13.5005C135.67 13.8903 135.646 14.2965 135.597 14.7188H126.212C126.277 15.5636 126.544 16.2134 127.013 16.6682C127.498 17.1068 128.088 17.3261 128.783 17.3261C129.817 17.3261 130.537 16.8875 130.941 16.0103H135.355C135.128 16.9038 134.716 17.7079 134.118 18.4227C133.536 19.1374 132.8 19.6979 131.911 20.104C131.022 20.5101 130.028 20.7132 128.928 20.7132C127.603 20.7132 126.423 20.4289 125.388 19.8603C124.353 19.2918 123.545 18.4795 122.963 17.4236C122.381 16.3677 122.09 15.1331 122.09 13.7198C122.09 12.3065 122.373 11.0718 122.939 10.0159C123.521 8.96 124.329 8.14775 125.364 7.57918C126.398 7.0106 127.586 6.72632 128.928 6.72632C130.238 6.72632 131.402 7.00248 132.42 7.55481C133.439 8.10714 134.231 8.89502 134.797 9.91845C135.379 10.9419 135.67 12.1359 135.67 13.5005ZM131.426 12.4039C131.426 11.6891 131.184 11.1206 130.699 10.6982C130.214 10.2758 129.607 10.0647 128.88 10.0647C128.185 10.0647 127.595 10.2677 127.11 10.6738C126.641 11.08 126.35 11.6567 126.237 12.4039H131.426Z" fill="white" style="fill:white;fill-opacity:1;"/>
<path d="M120.606 16.9849V20.5181H118.497C116.993 20.5181 115.821 20.1526 114.98 19.4216C114.14 18.6744 113.719 17.4641 113.719 15.7909V10.3813H112.07V6.92114H113.719V3.60718H117.866V6.92114H120.582V10.3813H117.866V15.8396C117.866 16.2457 117.963 16.5381 118.157 16.7168C118.351 16.8955 118.674 16.9849 119.127 16.9849H120.606Z" fill="white" style="fill:white;fill-opacity:1;"/>
<path d="M104.968 6.77515C106.552 6.77515 107.813 7.29498 108.751 8.33466C109.704 9.35809 110.181 10.7714 110.181 12.5746V20.5184H106.059V13.135C106.059 12.2253 105.824 11.5187 105.356 11.0151C104.887 10.5115 104.256 10.2597 103.464 10.2597C102.672 10.2597 102.041 10.5115 101.573 11.0151C101.104 11.5187 100.869 12.2253 100.869 13.135V20.5184H96.7227V6.92135H100.869V8.72454C101.29 8.12348 101.856 7.65237 102.567 7.31123C103.278 6.95384 104.078 6.77515 104.968 6.77515Z" fill="white" style="fill:white;fill-opacity:1;"/>
<path d="M91.6571 5.50797C90.9296 5.50797 90.3314 5.29678 89.8626 4.87442C89.4099 4.4358 89.1836 3.89972 89.1836 3.26617C89.1836 2.61637 89.4099 2.08029 89.8626 1.65792C90.3314 1.21931 90.9296 1 91.6571 1C92.3684 1 92.9504 1.21931 93.4031 1.65792C93.8719 2.08029 94.1063 2.61637 94.1063 3.26617C94.1063 3.89972 93.8719 4.4358 93.4031 4.87442C92.9504 5.29678 92.3684 5.50797 91.6571 5.50797ZM93.7183 6.92128V20.5183H89.5716V6.92128H93.7183Z" fill="white" style="fill:white;fill-opacity:1;"/>
<path d="M77.26 8.84628C77.6642 8.21273 78.2219 7.70101 78.9333 7.31114C79.6446 6.92126 80.4772 6.72632 81.431 6.72632C82.5465 6.72632 83.5569 7.0106 84.4623 7.57918C85.3676 8.14775 86.0789 8.96 86.5963 10.0159C87.1298 11.0718 87.3965 12.2983 87.3965 13.6954C87.3965 15.0925 87.1298 16.3271 86.5963 17.3992C86.0789 18.4552 85.3676 19.2755 84.4623 19.8603C83.5569 20.4289 82.5465 20.7132 81.431 20.7132C80.4934 20.7132 79.6608 20.5183 78.9333 20.1284C78.2219 19.7385 77.6642 19.2349 77.26 18.6176V27H73.1133V6.92126H77.26V8.84628ZM83.177 13.6954C83.177 12.6557 82.886 11.8435 82.304 11.2587C81.7382 10.6576 81.0349 10.3571 80.1943 10.3571C79.3698 10.3571 78.6665 10.6576 78.0845 11.2587C77.5187 11.8597 77.2358 12.6801 77.2358 13.7198C77.2358 14.7594 77.5187 15.5798 78.0845 16.1809C78.6665 16.7819 79.3698 17.0825 80.1943 17.0825C81.0188 17.0825 81.722 16.7819 82.304 16.1809C82.886 15.5636 83.177 14.7351 83.177 13.6954Z" fill="white" style="fill:white;fill-opacity:1;"/>
<path d="M66.887 9.18752C67.372 8.44025 67.9782 7.85543 68.7057 7.43307C69.4332 6.99445 70.2416 6.77515 71.1307 6.77515V11.1856H69.991C68.9563 11.1856 68.1803 11.4131 67.663 11.8679C67.1456 12.3065 66.887 13.0863 66.887 14.2072V20.5184H62.7402V6.92135H66.887V9.18752Z" fill="white" style="fill:white;fill-opacity:1;"/>
<path d="M53.4586 20.7132C52.1329 20.7132 50.9366 20.4289 49.8696 19.8603C48.8188 19.2918 47.9862 18.4795 47.3719 17.4236C46.7737 16.3677 46.4746 15.1331 46.4746 13.7198C46.4746 12.3227 46.7818 11.0962 47.3961 10.0403C48.0104 8.96812 48.8511 8.14775 49.9181 7.57918C50.9851 7.0106 52.1814 6.72632 53.5071 6.72632C54.8328 6.72632 56.0291 7.0106 57.0961 7.57918C58.1631 8.14775 59.0038 8.96812 59.6181 10.0403C60.2324 11.0962 60.5396 12.3227 60.5396 13.7198C60.5396 15.1168 60.2243 16.3514 59.5938 17.4236C58.9795 18.4795 58.1308 19.2918 57.0476 19.8603C55.9806 20.4289 54.7843 20.7132 53.4586 20.7132ZM53.4586 17.1068C54.2508 17.1068 54.9217 16.8144 55.4713 16.2296C56.0372 15.6448 56.3201 14.8082 56.3201 13.7198C56.3201 12.6314 56.0453 11.7947 55.4956 11.2099C54.9621 10.6251 54.2993 10.3327 53.5071 10.3327C52.6988 10.3327 52.0279 10.6251 51.4944 11.2099C50.9609 11.7785 50.6941 12.6151 50.6941 13.7198C50.6941 14.8082 50.9528 15.6448 51.4701 16.2296C52.0036 16.8144 52.6664 17.1068 53.4586 17.1068Z" fill="white" style="fill:white;fill-opacity:1;"/>
<path d="M28.125 11.9411C28.125 10.2516 28.4887 8.74893 29.2162 7.43309C29.9437 6.101 30.9542 5.06945 32.2475 4.33843C33.557 3.59116 35.0362 3.21753 36.6852 3.21753C38.7061 3.21753 40.4359 3.75361 41.8747 4.82578C43.3136 5.89794 44.2755 7.35999 44.7605 9.21191H40.2015C39.862 8.49713 39.377 7.95293 38.7465 7.57929C38.1322 7.20566 37.4289 7.01884 36.6367 7.01884C35.3596 7.01884 34.3249 7.46558 33.5327 8.35905C32.7406 9.25252 32.3445 10.4465 32.3445 11.9411C32.3445 13.4356 32.7406 14.6296 33.5327 15.5231C34.3249 16.4165 35.3596 16.8633 36.6367 16.8633C37.4289 16.8633 38.1322 16.6765 38.7465 16.3028C39.377 15.9292 39.862 15.385 40.2015 14.6702H44.7605C44.2755 16.5221 43.3136 17.9842 41.8747 19.0563C40.4359 20.1123 38.7061 20.6402 36.6852 20.6402C35.0362 20.6402 33.557 20.2747 32.2475 19.5437C30.9542 18.7964 29.9437 17.7649 29.2162 16.449C28.4887 15.1332 28.125 13.6305 28.125 11.9411Z" fill="white" style="fill:white;fill-opacity:1;"/>
</svg>